<svg width="20" height="20" viewBox="0 0 20 20" fill="none" xmlns="http://www.w3.org/2000/svg">
<path d="M10 0C10.204 0 10.3997 0.0810436 10.5439 0.225302C10.6882 0.369561 10.7692 0.565218 10.7692 0.769231V3.07692C10.7692 3.28094 10.6882 3.47659 10.5439 3.62085C10.3997 3.76511 10.204 3.84615 10 3.84615C9.79599 3.84615 9.60033 3.76511 9.45607 3.62085C9.31181 3.47659 9.23077 3.28094 9.23077 3.07692V0.769231C9.23077 0.565218 9.31181 0.369561 9.45607 0.225302C9.60033 0.0810436 9.79599 0 10 0ZM5.38462 10C5.38462 8.77592 5.87088 7.60198 6.73643 6.73643C7.60198 5.87088 8.77592 5.38462 10 5.38462C11.2241 5.38462 12.398 5.87088 13.2636 6.73643C14.1291 7.60198 14.6154 8.77592 14.6154 10C14.6154 11.2241 14.1291 12.398 13.2636 13.2636C12.398 14.1291 11.2241 14.6154 10 14.6154C8.77592 14.6154 7.60198 14.1291 6.73643 13.2636C5.87088 12.398 5.38462 11.2241 5.38462 10ZM17.0708 4.01641C17.2066 3.87059 17.2806 3.67772 17.2771 3.47844C17.2736 3.27916 17.1929 3.08902 17.0519 2.94808C16.911 2.80714 16.7208 2.72641 16.5216 2.7229C16.3223 2.71938 16.1294 2.79335 15.9836 2.92923L14.3518 4.56C14.2783 4.63092 14.2197 4.71578 14.1793 4.80961C14.1389 4.90344 14.1177 5.00437 14.1167 5.1065C14.1158 5.20864 14.1352 5.30994 14.1738 5.40449C14.2125 5.49905 14.2696 5.58496 14.3417 5.65722C14.4139 5.72948 14.4998 5.78664 14.5943 5.82536C14.6888 5.86408 14.7901 5.88359 14.8923 5.88275C14.9944 5.88191 15.0953 5.86074 15.1892 5.82047C15.2831 5.7802 15.368 5.72164 15.439 5.6482L17.0708 4.01641ZM20 10C20 10.204 19.919 10.3997 19.7747 10.5439C19.6304 10.6882 19.4348 10.7692 19.2308 10.7692H16.9231C16.7191 10.7692 16.5234 10.6882 16.3791 10.5439C16.2349 10.3997 16.1538 10.204 16.1538 10C16.1538 9.79599 16.2349 9.60033 16.3791 9.45607C16.5234 9.31181 16.7191 9.23077 16.9231 9.23077H19.2308C19.4348 9.23077 19.6304 9.31181 19.7747 9.45607C19.919 9.60033 20 9.79599 20 10ZM15.9836 17.0708C16.1294 17.2066 16.3223 17.2806 16.5216 17.2771C16.7208 17.2736 16.911 17.1929 17.0519 17.0519C17.1929 16.911 17.2736 16.7208 17.2771 16.5216C17.2806 16.3223 17.2066 16.1294 17.0708 15.9836L15.44 14.3518C15.3691 14.2783 15.2842 14.2197 15.1904 14.1793C15.0966 14.1389 14.9956 14.1177 14.8935 14.1167C14.7914 14.1158 14.6901 14.1352 14.5955 14.1738C14.501 14.2125 14.415 14.2696 14.3428 14.3417C14.2705 14.4139 14.2134 14.4998 14.1746 14.5943C14.1359 14.6888 14.1164 14.7901 14.1172 14.8922C14.1181 14.9944 14.1393 15.0953 14.1795 15.1892C14.2198 15.2831 14.2784 15.368 14.3518 15.439L15.9836 17.0708ZM10 16.1538C10.204 16.1538 10.3997 16.2349 10.5439 16.3791C10.6882 16.5234 10.7692 16.7191 10.7692 16.9231V19.2308C10.7692 19.4348 10.6882 19.6304 10.5439 19.7747C10.3997 19.919 10.204 20 10 20C9.79599 20 9.60033 19.919 9.45607 19.7747C9.31181 19.6304 9.23077 19.4348 9.23077 19.2308V16.9231C9.23077 16.7191 9.31181 16.5234 9.45607 16.3791C9.60033 16.2349 9.79599 16.1538 10 16.1538ZM5.64923 15.439C5.78929 15.2938 5.86673 15.0995 5.86488 14.8978C5.86304 14.6961 5.78204 14.5032 5.63936 14.3607C5.49667 14.2181 5.30369 14.1373 5.102 14.1356C4.90031 14.134 4.70604 14.2116 4.56103 14.3518L2.92923 15.9826C2.78904 16.1276 2.71141 16.3218 2.71307 16.5235C2.71473 16.7252 2.79553 16.9182 2.93809 17.0609C3.08064 17.2036 3.27354 17.2846 3.47523 17.2864C3.67692 17.2883 3.87127 17.2108 4.01641 17.0708L5.64923 15.439ZM3.84615 10C3.84615 10.204 3.76511 10.3997 3.62085 10.5439C3.47659 10.6882 3.28094 10.7692 3.07692 10.7692H0.769231C0.565218 10.7692 0.369561 10.6882 0.225302 10.5439C0.0810436 10.3997 0 10.204 0 10C0 9.79599 0.0810436 9.60033 0.225302 9.45607C0.369561 9.31181 0.565218 9.23077 0.769231 9.23077H3.07692C3.28094 9.23077 3.47659 9.31181 3.62085 9.45607C3.76511 9.60033 3.84615 9.79599 3.84615 10ZM4.56103 5.6482C4.70685 5.78408 4.89971 5.85805 5.099 5.85454C5.29828 5.85102 5.48842 5.77029 5.62936 5.62936C5.77029 5.48842 5.85102 5.29828 5.85454 5.099C5.85805 4.89971 5.78408 4.70685 5.64821 4.56103L4.01744 2.92923C3.87242 2.78904 3.67815 2.71141 3.47646 2.71307C3.27477 2.71473 3.0818 2.79553 2.93911 2.93809C2.79642 3.08064 2.71543 3.27354 2.71358 3.47523C2.71173 3.67692 2.78918 3.87127 2.92923 4.01641L4.56103 5.6482Z" fill="#1F1F1F"/>
</svg>
